<?xml version="1.0" standalone="no"?>
<!DOCTYPE svg PUBLIC "-//W3C//DTD SVG 20010904//EN"
 "http://www.w3.org/TR/2001/REC-SVG-20010904/DTD/svg10.dtd">
<svg version="1.0" xmlns="http://www.w3.org/2000/svg"
 width="4000.000000pt" height="4000.000000pt" viewBox="0 0 4000.000000 4000.000000"
 preserveAspectRatio="xMidYMid meet">
<metadata>
Created by potrace 1.11, written by Peter Selinger 2001-2013
</metadata>
<g transform="translate(0.000000,4000.000000) scale(0.100000,-0.100000)"
fill="#000000" stroke="none">
<path d="M22169 39743 c-1 -16 -2 -41 -4 -58 -1 -16 -6 -78 -9 -138 -4 -59 -9
-126 -11 -150 -2 -23 -7 -85 -10 -137 -14 -199 -20 -259 -45 -475 -19 -159
-56 -425 -65 -455 -2 -8 -6 -31 -9 -50 -4 -28 -50 -259 -60 -305 -2 -5 -6 -28
-11 -50 -4 -22 -21 -92 -37 -155 -234 -915 -606 -1677 -1237 -2535 -53 -71
-100 -135 -106 -141 -5 -7 -19 -24 -30 -40 -18 -24 -96 -124 -188 -238 -99
-123 -416 -497 -437 -516 -4 -3 -49 -52 -100 -110 -52 -58 -99 -110 -105 -116
-14 -16 -263 -281 -303 -324 -19 -19 -137 -141 -262 -270 -125 -129 -245 -253
-265 -275 -21 -22 -109 -114 -195 -205 -152 -160 -253 -267 -322 -341 -46 -49
-228 -247 -253 -273 -11 -12 -61 -67 -112 -122 -50 -55 -101 -111 -113 -124
-11 -14 -40 -45 -63 -70 -60 -65 -341 -380 -410 -460 -17 -19 -49 -55 -71 -80
-23 -25 -54 -61 -71 -80 -77 -89 -295 -342 -336 -391 -25 -30 -79 -92 -119
-139 -39 -47 -81 -96 -93 -110 -37 -44 -368 -444 -380 -460 -7 -8 -32 -40 -57
-70 -25 -30 -50 -62 -57 -70 -6 -8 -27 -33 -45 -56 -77 -95 -102 -127 -217
-274 -67 -85 -127 -162 -134 -170 -72 -88 -508 -669 -665 -884 -250 -345 -672
-967 -882 -1301 -62 -99 -123 -196 -135 -215 -112 -173 -420 -705 -561 -965
-257 -479 -499 -983 -669 -1395 -26 -63 -52 -126 -58 -140 -5 -14 -11 -29 -13
-35 -2 -5 -30 -80 -64 -165 -59 -150 -212 -596 -264 -770 -35 -118 -143 -532
-150 -573 -3 -18 -8 -40 -10 -48 -8 -22 -16 -64 -31 -172 -3 -23 -8 -53 -10
-67 -13 -90 -21 -179 -40 -455 -26 -374 -26 -1435 1 -1870 2 -38 6 -110 9
-160 3 -49 7 -110 10 -135 2 -25 7 -76 10 -115 3 -38 8 -86 10 -105 2 -19 7
-60 10 -90 15 -129 54 -378 89 -560 8 -41 17 -91 21 -110 3 -19 13 -69 22
-110 8 -41 17 -84 19 -95 4 -22 5 -27 29 -135 9 -41 19 -86 21 -100 20 -106
150 -596 216 -815 63 -208 195 -596 261 -765 89 -229 116 -296 137 -345 161
-365 167 -379 277 -600 121 -243 209 -406 333 -620 352 -608 832 -1269 1305
-1799 6 -6 28 -31 49 -56 292 -336 859 -898 1226 -1216 25 -21 47 -41 50 -44
11 -11 211 -182 310 -264 58 -49 116 -97 130 -109 231 -195 766 -601 1135
-863 737 -523 833 -584 893 -563 35 12 48 39 98 204 73 248 167 492 316 825
32 71 190 387 238 475 194 357 469 792 724 1143 61 85 120 166 131 182 18 26
221 292 251 329 44 55 294 365 328 406 23 27 46 54 52 60 6 5 46 53 90 105 43
52 86 102 94 111 8 8 40 44 70 80 68 78 129 146 366 408 293 323 890 932 1300
1327 181 174 460 440 580 550 17 16 77 72 133 124 116 107 142 132 302 281 63
59 130 122 149 140 400 372 1223 1194 1482 1480 13 14 61 67 108 119 101 111
85 93 190 210 88 98 399 470 460 550 19 25 37 47 41 50 10 8 273 360 328 440
132 189 280 419 382 590 221 375 414 786 565 1207 33 94 101 309 109 346 2 9
6 21 9 26 17 26 142 557 171 726 9 51 45 274 51 310 3 22 7 50 9 61 2 12 7 48
10 80 4 33 9 67 11 77 2 10 6 48 10 85 3 36 7 74 9 83 3 14 10 91 20 204 2 22
6 74 10 115 15 172 18 220 30 460 26 510 26 1398 1 1680 -2 25 -7 88 -10 140
-4 52 -9 113 -11 135 -5 43 -14 132 -21 205 -2 25 -6 63 -9 85 -2 22 -7 63
-10 90 -5 45 -9 79 -20 155 -2 14 -6 48 -10 75 -11 88 -26 190 -51 340 -15 92
-20 120 -29 178 -11 64 -56 313 -65 357 -5 25 -12 56 -14 70 -2 14 -7 36 -10
50 -3 14 -8 36 -10 50 -9 49 -55 266 -70 330 -8 36 -25 108 -37 160 -12 52
-46 194 -76 315 -30 121 -56 227 -58 235 -2 8 -13 49 -24 90 -67 250 -104 383
-146 525 -26 88 -51 174 -55 190 -18 71 -140 454 -237 745 -104 315 -278 805
-348 985 -13 33 -41 107 -63 165 -57 150 -132 340 -147 375 -7 17 -25 59 -38
95 -24 61 -93 229 -122 295 -7 17 -56 133 -109 258 -54 126 -108 252 -120 280
-13 29 -33 73 -44 98 -78 174 -118 264 -149 329 -20 41 -48 102 -63 135 -63
138 -103 221 -306 630 -194 391 -261 521 -373 730 -21 39 -60 111 -86 160 -26
50 -63 115 -81 146 -19 31 -34 59 -34 61 0 3 -43 81 -96 174 -53 93 -108 189
-122 214 -31 55 -63 109 -80 135 -6 11 -15 26 -19 34 -18 38 -278 464 -412
674 -46 73 -95 152 -110 176 -14 24 -32 49 -38 56 -7 8 -13 16 -13 19 0 6
-235 358 -325 486 -37 52 -75 107 -84 122 -9 16 -19 28 -23 28 -5 0 -8 6 -8
14 0 8 -3 16 -8 18 -4 2 -29 35 -56 73 -213 303 -586 784 -835 1075 -77 90
-244 283 -251 290 -3 3 -30 32 -60 65 -30 33 -98 107 -150 164 -52 56 -107
116 -121 132 -32 36 -39 36 -40 2z"/>
<path d="M29743 29643 c-17 -6 -16 -38 3 -120 9 -37 17 -75 19 -83 15 -67 87
-434 99 -510 9 -52 18 -106 20 -120 4 -23 9 -53 22 -140 3 -19 7 -46 9 -60 3
-14 9 -61 15 -105 6 -44 13 -91 15 -105 2 -14 6 -47 10 -75 3 -27 8 -61 10
-75 2 -14 6 -52 10 -85 3 -33 8 -71 10 -85 2 -14 6 -56 10 -95 4 -38 8 -77 10
-85 2 -8 6 -53 10 -100 4 -47 9 -87 10 -90 2 -3 6 -49 10 -102 3 -53 7 -105 9
-115 2 -10 7 -63 11 -118 3 -55 8 -116 10 -135 4 -32 11 -136 20 -300 2 -36 7
-112 10 -170 24 -403 29 -616 29 -1250 0 -564 -5 -834 -19 -1057 -11 -181 -16
-252 -21 -303 -2 -30 -6 -87 -9 -127 -3 -40 -7 -89 -9 -110 -3 -21 -7 -67 -11
-103 -3 -36 -8 -81 -10 -100 -2 -19 -7 -60 -10 -90 -3 -30 -8 -66 -10 -80 -3
-14 -7 -45 -10 -70 -3 -25 -7 -56 -10 -70 -2 -14 -7 -45 -10 -70 -5 -38 -17
-108 -49 -280 -77 -420 -246 -848 -577 -1467 -23 -43 -45 -82 -49 -88 -5 -5
-34 -55 -65 -110 -186 -323 -503 -807 -771 -1177 -54 -75 -106 -146 -114 -158
-8 -13 -20 -28 -25 -34 -6 -6 -71 -92 -145 -190 -74 -99 -193 -252 -263 -340
-70 -89 -138 -174 -150 -190 -12 -16 -27 -34 -32 -40 -6 -6 -53 -63 -105 -126
-52 -63 -99 -120 -105 -126 -5 -7 -26 -31 -45 -55 -50 -62 -376 -443 -405
-473 -6 -6 -46 -51 -89 -101 -44 -49 -84 -95 -90 -100 -6 -6 -31 -33 -55 -60
-78 -88 -214 -236 -391 -425 -445 -474 -1071 -1095 -1479 -1466 -29 -27 -65
-60 -80 -73 -38 -35 -237 -221 -306 -286 -198 -187 -586 -580 -780 -789 -60
-65 -117 -126 -125 -135 -9 -9 -49 -54 -90 -101 -41 -47 -77 -87 -80 -90 -7
-7 -181 -208 -208 -240 -11 -14 -48 -59 -82 -100 -34 -41 -70 -85 -80 -97 -10
-11 -61 -77 -114 -145 -53 -67 -102 -130 -108 -138 -116 -137 -452 -636 -563
-835 -201 -360 -295 -612 -326 -875 -5 -47 -12 -101 -14 -120 -6 -49 -14 -111
-19 -140 -3 -14 -7 -41 -10 -60 -13 -86 -18 -120 -31 -195 -7 -44 -16 -107
-20 -140 -4 -33 -9 -71 -12 -85 -3 -14 -6 -126 -8 -250 -4 -246 10 -384 44
-430 24 -33 70 -34 185 -3 84 22 277 84 321 103 136 57 900 282 1074 316 14 3
28 7 31 9 4 2 22 7 41 10 19 3 81 17 139 31 58 14 168 39 245 55 77 17 147 32
155 34 37 8 529 105 560 110 19 3 42 8 50 10 8 2 31 6 50 9 19 3 46 8 60 11
14 3 88 16 165 30 146 26 174 31 215 40 14 3 41 7 60 10 19 2 46 7 60 9 44 9
83 16 175 31 50 8 101 17 115 19 44 8 144 25 180 31 19 3 46 7 60 10 25 5 52
9 124 20 21 4 48 8 60 11 11 2 136 24 276 49 244 43 273 48 330 60 14 3 43 7
65 11 22 3 56 9 75 14 19 5 55 12 80 15 24 4 47 8 50 10 3 2 26 6 50 10 25 3
53 8 63 11 11 4 29 7 40 9 63 8 609 126 817 176 69 17 132 32 140 34 51 11
246 62 365 96 77 22 147 42 155 44 289 74 965 331 1210 460 30 16 57 29 60 30
9 2 135 67 245 128 212 117 510 304 745 468 149 104 592 439 715 540 284 235
412 349 624 559 221 219 274 276 407 435 576 689 936 1436 1180 2445 39 162
97 433 109 510 3 19 8 49 12 65 3 17 7 39 8 50 2 11 8 47 14 80 16 93 20 115
27 164 3 25 8 57 10 71 6 41 23 171 29 225 4 28 8 64 10 80 2 17 6 62 10 100
3 39 8 86 10 105 6 49 19 237 30 410 27 436 18 1112 -20 1555 -2 28 -7 86 -10
130 -3 44 -8 91 -10 105 -3 14 -7 57 -10 95 -3 39 -8 84 -10 100 -2 17 -7 59
-10 95 -4 36 -9 73 -11 84 -2 10 -6 44 -9 75 -3 31 -8 67 -10 81 -3 14 -7 39
-9 55 -2 17 -7 50 -11 75 -4 25 -8 56 -10 70 -23 173 -133 762 -170 910 -2 8
-11 49 -20 90 -19 88 -97 405 -126 508 -11 40 -22 81 -24 90 -2 9 -20 73 -40
142 -20 69 -38 132 -40 140 -24 99 -276 848 -314 935 -5 11 -39 99 -77 195
-63 165 -190 471 -236 570 -11 25 -29 63 -38 85 -44 101 -181 392 -202 430 -6
11 -14 27 -18 35 -54 113 -240 464 -320 605 -132 231 -336 568 -376 622 -13
17 -24 34 -24 38 0 5 -174 266 -261 390 -198 283 -487 649 -675 855 -18 19
-42 46 -54 60 -101 117 -516 542 -657 672 -43 40 -157 140 -253 222 -73 62
-225 157 -247 155 -4 0 -14 -3 -20 -6z"/>
<path d="M10855 25388 c-94 -49 -716 -469 -723 -489 -2 -5 -8 -9 -12 -9 -13 0
-291 -209 -433 -325 -17 -15 -39 -32 -47 -38 -38 -30 -127 -103 -142 -117 -9
-8 -30 -26 -48 -39 -18 -14 -44 -36 -60 -50 -15 -14 -43 -39 -61 -55 -203
-176 -302 -268 -559 -526 -141 -140 -290 -293 -331 -340 -142 -158 -234 -265
-324 -375 -49 -60 -92 -112 -95 -115 -3 -3 -19 -23 -35 -45 -17 -22 -32 -42
-35 -45 -3 -3 -21 -25 -40 -50 -19 -25 -38 -46 -42 -48 -5 -2 -8 -8 -8 -14 0
-6 -22 -38 -48 -72 -128 -161 -352 -498 -514 -771 -61 -104 -78 -134 -159
-280 -158 -289 -377 -783 -481 -1085 -115 -336 -232 -774 -263 -990 -4 -24 -8
-47 -10 -50 -1 -3 -6 -25 -9 -50 -3 -25 -8 -54 -10 -65 -2 -11 -7 -45 -11 -75
-4 -30 -9 -62 -10 -71 -2 -8 -6 -42 -9 -75 -4 -32 -9 -78 -12 -102 -14 -108
-28 -396 -27 -582 0 -160 11 -432 18 -471 2 -9 7 -52 11 -95 9 -104 11 -122
19 -169 3 -22 15 -96 27 -165 120 -741 468 -1614 933 -2346 132 -206 352 -511
474 -656 10 -13 45 -54 77 -93 227 -274 558 -610 854 -866 191 -165 542 -438
680 -528 30 -20 57 -39 60 -42 8 -10 280 -186 410 -266 100 -61 174 -103 395
-228 97 -55 492 -252 635 -317 204 -93 656 -280 705 -293 6 -1 17 -5 25 -8 39
-17 355 -125 500 -172 431 -138 1056 -296 1460 -369 47 -8 99 -18 115 -21 17
-3 98 -16 180 -30 83 -14 161 -27 174 -30 14 -2 47 -7 75 -10 28 -3 60 -8 71
-10 38 -8 391 -53 474 -61 24 -2 60 -6 80 -8 20 -3 65 -8 101 -11 36 -3 85 -8
110 -10 25 -3 77 -7 115 -10 39 -3 95 -8 125 -10 74 -6 218 -15 310 -20 41 -2
127 -6 190 -10 309 -16 323 -15 261 19 -22 12 -381 239 -493 312 -37 24 -70
44 -73 44 -3 0 -11 5 -18 10 -7 6 -104 70 -217 141 -113 72 -231 148 -263 170
-32 21 -62 39 -66 39 -5 0 -11 3 -13 8 -2 4 -61 46 -133 94 -218 146 -542 375
-715 506 -47 35 -98 74 -114 85 -87 64 -440 342 -472 372 -6 5 -30 26 -54 45
-43 34 -244 204 -266 225 -6 5 -29 25 -50 44 -224 197 -342 309 -559 526 -195
195 -320 328 -440 465 -26 30 -59 69 -74 85 -14 17 -76 91 -137 165 -425 518
-791 1102 -1026 1640 -54 122 -70 160 -73 170 -1 3 -9 23 -19 45 -10 22 -22
51 -26 65 -5 14 -23 63 -40 110 -97 263 -158 484 -204 740 -8 47 -18 97 -21
111 -2 14 -16 95 -30 180 -14 85 -28 166 -30 180 -3 14 -7 41 -9 60 -3 19 -9
63 -15 99 -6 36 -13 88 -16 115 -3 28 -10 75 -15 105 -5 30 -12 78 -15 105 -3
28 -7 61 -10 75 -2 14 -6 45 -9 70 -9 75 -36 293 -41 325 -2 17 -7 57 -10 90
-4 33 -8 70 -10 83 -2 13 -7 53 -11 90 -3 37 -8 75 -10 86 -2 10 -6 51 -10 90
-3 39 -8 74 -10 77 -1 3 -6 52 -9 110 -4 57 -8 115 -10 128 -26 162 -26 1334
0 1653 1 20 6 89 10 155 4 65 8 134 10 153 1 19 6 73 9 120 4 47 9 108 11 135
3 28 7 74 10 103 11 113 16 168 20 202 2 19 7 64 10 100 4 36 8 76 10 90 2 14
6 50 10 80 3 30 8 71 10 90 7 57 26 203 30 230 2 14 7 48 10 75 4 28 8 57 10
65 2 8 7 40 10 70 3 30 10 80 15 110 5 30 12 73 15 95 3 22 14 90 25 150 10
61 21 126 24 145 3 19 8 46 11 60 5 23 12 65 21 115 2 11 8 43 14 70 5 28 11
61 14 75 2 14 7 36 10 50 3 14 8 36 10 50 7 37 23 114 46 215 11 50 23 102 25
117 3 15 30 125 61 245 31 120 57 223 58 228 16 65 104 354 111 364 2 4 6 18
9 32 2 13 32 101 67 194 77 213 110 321 103 340 -8 20 -31 18 -79 -7z"/>
<path d="M32057 10444 c-1 -1 -45 -5 -98 -8 -52 -4 -106 -8 -120 -11 -23 -3
-67 -9 -169 -21 -25 -3 -85 -11 -135 -19 -49 -7 -108 -16 -130 -20 -22 -3 -67
-10 -100 -15 -102 -16 -129 -20 -160 -25 -16 -2 -41 -6 -54 -9 -12 -3 -42 -8
-65 -10 -22 -3 -51 -8 -62 -10 -12 -2 -39 -7 -60 -10 -22 -4 -46 -8 -54 -11
-8 -2 -35 -6 -60 -9 -25 -3 -56 -8 -70 -11 -14 -2 -36 -7 -50 -10 -14 -2 -45
-7 -70 -11 -24 -3 -47 -7 -50 -9 -3 -1 -30 -6 -61 -9 -31 -4 -67 -9 -80 -12
-13 -3 -37 -7 -54 -10 -16 -3 -52 -9 -80 -14 -27 -5 -68 -12 -90 -15 -39 -5
-89 -14 -130 -22 -11 -2 -36 -6 -55 -9 -38 -6 -447 -72 -492 -79 -16 -3 -40
-7 -55 -9 -16 -3 -48 -8 -73 -12 -25 -4 -54 -8 -65 -10 -11 -1 -33 -5 -50 -8
-16 -3 -75 -12 -130 -21 -55 -9 -111 -18 -125 -20 -14 -2 -45 -7 -70 -10 -25
-3 -83 -13 -130 -20 -47 -8 -103 -17 -125 -20 -23 -3 -50 -7 -60 -9 -11 -2
-42 -7 -68 -10 -27 -4 -58 -9 -69 -11 -11 -3 -39 -7 -62 -9 -22 -3 -52 -8 -66
-10 -14 -3 -56 -9 -95 -15 -38 -6 -81 -13 -95 -16 -14 -3 -49 -8 -79 -11 -30
-3 -64 -8 -75 -10 -12 -3 -34 -7 -51 -9 -16 -3 -64 -9 -105 -15 -41 -6 -86
-13 -100 -15 -23 -3 -74 -11 -140 -20 -14 -2 -108 -16 -210 -30 -205 -29 -234
-33 -270 -40 -14 -2 -49 -7 -79 -10 -30 -4 -61 -8 -70 -10 -9 -1 -38 -6 -66
-9 -52 -7 -102 -14 -145 -21 -77 -12 -160 -25 -200 -30 -25 -3 -82 -13 -126
-20 -45 -8 -103 -17 -130 -21 -27 -3 -58 -8 -69 -10 -35 -7 -69 -13 -115 -19
-44 -6 -130 -20 -180 -30 -14 -3 -45 -8 -70 -11 -25 -3 -52 -7 -60 -9 -8 -2
-31 -7 -50 -10 -19 -3 -57 -10 -85 -15 -54 -10 -88 -16 -150 -25 -22 -4 -47
-8 -55 -10 -8 -2 -31 -7 -50 -10 -77 -13 -207 -36 -250 -45 -25 -6 -58 -12
-75 -15 -46 -8 -83 -14 -170 -31 -44 -8 -91 -17 -105 -20 -14 -2 -45 -9 -70
-14 -25 -5 -57 -12 -72 -15 -16 -3 -40 -7 -55 -10 -16 -3 -48 -10 -73 -15 -25
-5 -56 -12 -70 -14 -14 -3 -72 -14 -130 -26 -58 -12 -116 -24 -130 -26 -14 -3
-45 -10 -70 -15 -25 -6 -56 -13 -70 -15 -14 -3 -45 -10 -70 -15 -25 -6 -56
-13 -69 -15 -12 -3 -53 -12 -90 -20 -36 -9 -77 -18 -91 -20 -14 -3 -74 -17
-135 -31 -60 -14 -128 -29 -150 -34 -22 -4 -134 -31 -250 -59 -200 -49 -222
-54 -262 -64 -38 -9 -262 -69 -328 -87 -38 -11 -77 -22 -85 -24 -112 -25 -557
-165 -725 -228 -220 -81 -395 -170 -395 -199 0 -38 144 -106 420 -196 147 -48
413 -129 454 -137 10 -3 33 -9 50 -14 32 -11 46 -14 301 -82 235 -62 411 -108
436 -113 13 -3 58 -14 99 -25 41 -11 86 -22 100 -25 14 -3 54 -13 90 -21 36
-9 83 -20 105 -25 22 -5 47 -11 55 -14 8 -3 26 -8 40 -10 32 -6 40 -8 190 -45
220 -53 344 -82 390 -91 77 -16 90 -19 174 -39 89 -22 217 -50 256 -57 14 -3
41 -9 60 -14 19 -5 46 -11 60 -14 14 -2 77 -16 140 -30 211 -45 585 -125 610
-130 29 -5 228 -46 250 -51 17 -4 213 -43 250 -50 14 -3 36 -7 50 -10 32 -7
42 -9 175 -34 61 -12 142 -28 180 -36 39 -8 81 -16 95 -19 20 -3 146 -27 220
-41 24 -5 182 -34 215 -40 17 -3 71 -12 120 -20 50 -9 110 -20 135 -25 25 -6
61 -12 80 -14 19 -3 73 -11 120 -20 85 -15 139 -24 195 -32 17 -3 53 -9 80
-14 28 -5 67 -12 88 -15 45 -6 83 -12 202 -30 50 -8 110 -17 135 -20 25 -2 56
-7 69 -10 31 -6 132 -18 151 -18 24 0 122 15 215 33 28 6 64 12 80 14 17 3 44
7 60 11 144 29 206 41 305 60 41 8 199 39 350 70 151 31 284 58 295 61 11 2
128 26 260 54 132 28 249 53 260 54 11 2 31 6 45 10 14 3 36 8 50 10 14 3 79
17 145 31 122 26 290 62 329 69 23 5 259 55 291 62 11 3 31 7 45 10 99 20 550
118 615 134 44 10 96 22 115 25 19 3 76 15 125 26 50 11 101 22 115 25 14 3
33 7 42 10 9 3 25 6 35 8 10 2 74 16 143 31 69 15 134 28 145 31 11 2 151 33
310 69 160 36 301 68 315 71 13 3 63 14 110 25 117 28 300 69 330 75 14 3 43
10 65 16 22 5 47 11 55 13 45 9 302 76 324 84 40 16 80 109 116 271 19 87 22
101 35 180 4 25 9 54 12 65 13 56 11 336 -3 420 -77 477 -432 906 -1019 1235
-53 30 -321 164 -371 185 -142 62 -221 86 -330 101 -45 6 -241 13 -247 8z"/>
<path d="M7880 9768 c-38 -27 -186 -142 -253 -197 -223 -183 -455 -425 -605
-631 -34 -47 -66 -89 -70 -95 -39 -49 -150 -253 -205 -375 -23 -52 -74 -188
-83 -220 -2 -8 -15 -57 -28 -109 -51 -191 -70 -360 -70 -596 0 -129 8 -294 18
-355 2 -14 7 -47 11 -73 4 -27 8 -57 10 -67 2 -9 6 -33 9 -51 3 -19 12 -67 20
-106 9 -40 18 -87 21 -105 16 -93 49 -169 87 -205 38 -36 119 -59 238 -68 30
-3 82 -7 115 -10 33 -2 98 -7 145 -10 47 -3 101 -8 120 -10 35 -4 79 -9 200
-20 36 -3 81 -8 100 -10 19 -2 64 -7 100 -10 36 -3 81 -8 100 -10 19 -2 82 -9
140 -15 58 -6 121 -13 140 -15 19 -2 60 -7 90 -10 30 -3 75 -8 100 -10 25 -3
65 -8 90 -10 56 -6 134 -15 180 -20 19 -3 58 -7 85 -10 28 -3 66 -7 85 -10 19
-2 60 -7 90 -10 30 -4 66 -8 80 -10 14 -2 54 -6 90 -10 36 -4 76 -8 90 -10 14
-2 48 -6 75 -10 28 -3 66 -7 85 -9 19 -3 60 -7 90 -11 30 -3 66 -8 80 -10 14
-2 53 -7 87 -10 34 -3 70 -7 80 -9 10 -2 47 -7 83 -11 36 -4 74 -9 85 -10 11
-2 45 -6 75 -10 30 -3 69 -9 85 -11 17 -3 48 -7 70 -9 46 -5 129 -15 165 -20
34 -5 269 -36 300 -40 59 -7 296 -40 350 -50 14 -2 45 -7 70 -10 25 -3 54 -7
65 -9 11 -2 43 -7 70 -10 105 -15 192 -28 270 -42 22 -4 49 -8 60 -9 19 -2
150 -22 198 -30 12 -2 78 -13 147 -25 69 -11 135 -22 146 -24 12 -2 39 -7 60
-10 22 -4 62 -11 89 -16 28 -5 66 -12 85 -15 40 -6 134 -23 170 -30 14 -3 50
-9 80 -15 71 -13 81 -15 235 -46 72 -14 141 -28 155 -31 14 -2 86 -18 160 -35
74 -16 162 -36 195 -43 47 -10 393 -97 478 -120 9 -3 25 -7 35 -9 9 -3 105
-30 212 -61 475 -136 1075 -338 1770 -595 119 -44 140 -52 270 -99 63 -23 124
-46 135 -51 11 -5 72 -27 135 -50 63 -23 124 -46 135 -50 11 -5 85 -32 165
-60 80 -28 154 -56 165 -61 11 -5 153 -55 315 -113 439 -154 864 -292 1115
-362 50 -13 97 -26 105 -29 97 -29 542 -137 625 -151 17 -2 38 -7 47 -10 21
-6 29 -8 223 -44 88 -17 176 -33 195 -36 19 -3 42 -7 50 -9 8 -3 33 -7 55 -10
22 -4 78 -13 125 -20 47 -8 146 -24 220 -35 74 -11 146 -22 160 -24 31 -5 101
-15 161 -21 26 -3 58 -8 70 -10 13 -3 78 -12 144 -20 144 -19 192 -25 225 -30
14 -2 50 -7 80 -10 30 -3 62 -8 70 -10 8 -2 42 -6 75 -10 33 -3 71 -8 85 -10
35 -6 86 -13 155 -21 33 -3 69 -8 79 -10 11 -2 56 -8 100 -14 45 -6 92 -13
106 -15 14 -2 49 -7 79 -10 30 -4 61 -8 70 -10 9 -1 41 -6 72 -9 31 -4 67 -9
79 -11 12 -2 48 -7 79 -10 31 -4 63 -8 71 -10 8 -2 42 -7 75 -10 33 -4 67 -8
75 -10 8 -2 35 -7 60 -10 44 -5 99 -13 150 -20 14 -2 61 -9 105 -15 44 -6 91
-12 105 -14 14 -3 43 -7 65 -10 22 -3 57 -7 78 -11 86 -12 119 -17 257 -35 80
-11 156 -22 170 -25 14 -3 50 -8 80 -10 30 -3 62 -8 70 -10 8 -2 39 -7 69 -10
30 -4 63 -9 75 -11 12 -2 75 -11 140 -20 66 -8 122 -17 125 -18 3 -2 37 -7 76
-11 38 -4 72 -8 75 -10 3 -1 32 -6 65 -9 33 -4 67 -9 75 -11 8 -2 38 -6 65
-10 28 -3 61 -8 75 -10 21 -3 122 -17 210 -30 14 -2 45 -6 70 -10 75 -11 93
-14 140 -20 55 -8 97 -14 130 -20 14 -2 49 -7 79 -10 30 -4 62 -8 71 -10 9 -2
41 -6 71 -10 30 -3 61 -8 69 -10 8 -2 40 -7 70 -10 30 -3 62 -8 70 -10 8 -2
38 -6 65 -10 28 -3 95 -12 150 -20 55 -8 138 -19 185 -25 88 -12 127 -17 170
-25 14 -2 50 -7 80 -10 30 -3 62 -8 70 -10 8 -2 40 -6 71 -10 31 -3 65 -7 75
-9 11 -2 44 -7 74 -11 30 -3 66 -8 80 -10 14 -2 79 -11 145 -20 66 -9 132 -18
147 -21 15 -2 47 -6 70 -9 41 -4 97 -11 163 -19 17 -2 50 -7 75 -10 25 -3 68
-8 95 -11 49 -5 86 -10 155 -19 111 -16 166 -24 205 -31 153 -28 202 -38 215
-40 110 -24 176 -40 290 -70 74 -20 144 -38 155 -40 26 -6 377 -113 520 -158
61 -19 223 -71 360 -116 346 -111 632 -197 865 -261 225 -61 265 -72 284 -76
10 -2 33 -8 50 -13 17 -6 42 -12 56 -15 14 -2 45 -9 70 -16 25 -7 52 -14 60
-15 8 -2 53 -13 100 -24 47 -11 97 -22 113 -25 15 -3 35 -7 45 -10 9 -3 35 -8
57 -11 22 -4 47 -8 55 -10 8 -2 47 -7 85 -11 64 -8 84 -9 124 -5 19 1 16 14
-63 306 -58 217 -89 347 -106 440 -5 33 -12 69 -14 81 -4 18 -11 68 -21 154
-11 84 -17 224 -17 347 1 131 3 169 17 293 55 479 259 913 580 1235 87 88 136
127 250 202 291 192 776 445 876 458 47 6 62 27 67 93 4 51 1 62 -17 79 -23
21 -102 37 -236 48 -146 11 -201 16 -240 20 -22 3 -74 7 -115 10 -41 3 -86 8
-100 10 -14 2 -54 7 -90 10 -83 7 -158 15 -190 20 -14 2 -56 6 -94 10 -38 3
-79 7 -90 10 -12 2 -46 7 -76 10 -30 3 -68 7 -85 9 -16 2 -59 7 -95 11 -36 3
-72 8 -80 10 -8 2 -42 6 -75 10 -33 3 -87 10 -120 15 -33 5 -87 12 -120 16
-33 3 -69 8 -80 10 -10 2 -37 6 -60 9 -73 10 -190 26 -215 30 -14 2 -47 7 -75
10 -27 3 -75 10 -105 15 -30 5 -75 12 -100 15 -25 3 -70 10 -100 15 -30 5 -77
12 -105 16 -27 3 -59 8 -70 10 -11 2 -40 7 -65 10 -25 3 -54 8 -65 10 -11 2
-76 13 -145 23 -137 22 -182 29 -220 36 -14 3 -38 7 -55 9 -33 5 -335 55 -375
62 -14 2 -117 20 -230 40 -113 19 -227 39 -255 44 -124 21 -218 38 -250 44
-11 2 -96 18 -190 35 -93 17 -181 33 -195 36 -14 3 -38 7 -55 10 -43 7 -327
62 -472 90 -67 14 -137 27 -155 30 -18 4 -145 29 -283 56 -281 57 -270 55
-345 70 -81 16 -418 86 -545 114 -60 13 -125 26 -142 30 -18 3 -61 12 -95 20
-35 8 -79 17 -98 20 -19 3 -48 10 -65 14 -16 5 -48 13 -70 17 -22 4 -44 8 -50
10 -5 1 -143 31 -306 68 -163 36 -302 68 -310 70 -8 3 -25 7 -39 10 -22 3 -88
18 -315 71 -33 8 -109 26 -170 40 -60 15 -119 28 -130 31 -11 2 -112 26 -225
54 -113 28 -223 55 -245 60 -22 4 -132 31 -245 60 -113 29 -212 54 -220 56
-116 28 -723 187 -835 219 -117 33 -563 158 -590 165 -67 17 -464 135 -660
195 -230 71 -349 107 -364 111 -9 2 -61 17 -116 34 -134 41 -498 147 -610 177
-49 13 -97 26 -105 28 -17 5 -144 38 -235 62 -65 16 -68 17 -105 26 -54 14
-246 59 -270 63 -14 3 -33 7 -42 10 -10 3 -30 8 -45 10 -16 3 -79 16 -141 30
-63 13 -128 26 -145 29 -18 3 -54 10 -82 15 -27 6 -61 12 -75 15 -14 3 -36 7
-50 10 -14 2 -38 7 -55 10 -16 3 -41 7 -55 10 -14 3 -65 12 -115 21 -49 8
-101 17 -115 20 -48 8 -215 36 -237 39 -13 2 -42 6 -65 10 -24 4 -52 9 -63 11
-11 2 -60 10 -110 18 -49 8 -112 18 -140 21 -27 4 -57 8 -65 10 -8 2 -37 7
-65 11 -27 3 -59 8 -70 10 -11 2 -38 6 -60 9 -22 3 -51 7 -64 10 -14 2 -59 9
-101 15 -42 6 -86 12 -97 14 -11 3 -44 7 -74 11 -30 3 -61 8 -69 10 -8 2 -37
6 -65 10 -27 3 -61 7 -75 10 -14 2 -41 6 -60 9 -19 3 -84 12 -145 21 -60 8
-128 18 -150 21 -22 3 -51 7 -65 9 -14 2 -43 6 -65 9 -22 3 -89 13 -150 21
-166 24 -187 27 -220 31 -26 3 -90 12 -215 30 -19 3 -55 7 -80 10 -25 3 -56 7
-70 9 -14 3 -79 12 -145 20 -66 9 -131 18 -145 20 -14 3 -45 7 -70 10 -25 3
-58 7 -75 10 -16 2 -52 7 -80 10 -27 4 -61 8 -75 11 -14 2 -49 7 -79 10 -30 3
-57 7 -61 9 -3 2 -37 6 -75 10 -39 3 -77 8 -85 10 -8 2 -37 7 -65 10 -27 4
-61 8 -75 10 -14 2 -47 7 -75 10 -27 4 -61 8 -75 10 -14 2 -47 7 -75 10 -27 4
-77 10 -110 15 -33 5 -82 12 -110 15 -27 3 -61 8 -75 10 -25 4 -149 21 -410
55 -80 10 -158 21 -175 24 -16 2 -55 8 -85 11 -30 4 -62 9 -70 10 -8 2 -42 6
-75 9 -33 4 -67 9 -75 11 -8 2 -40 6 -70 10 -30 3 -66 7 -80 10 -23 4 -298 41
-380 51 -64 8 -195 25 -220 29 -24 3 -88 12 -160 21 -83 10 -117 15 -143 20
-15 3 -44 7 -65 9 -33 3 -79 9 -152 20 -30 5 -169 23 -225 30 -71 9 -119 16
-145 20 -14 2 -47 7 -75 10 -27 4 -66 8 -85 11 -19 2 -46 6 -60 9 -14 2 -50 7
-80 10 -30 4 -66 8 -80 10 -14 2 -45 6 -70 10 -58 7 -185 24 -230 31 -19 3
-69 9 -110 15 -41 6 -86 12 -100 14 -14 2 -49 7 -79 10 -30 4 -61 8 -70 10 -9
1 -41 6 -71 9 -30 4 -73 9 -95 12 -22 3 -47 7 -55 9 -8 2 -40 6 -71 10 -31 3
-66 7 -77 10 -12 2 -45 6 -74 9 -29 4 -62 8 -74 10 -19 4 -49 8 -154 21 -19 2
-53 7 -75 10 -69 11 -88 14 -150 21 -33 3 -62 8 -65 9 -3 2 -34 6 -70 10 -36
4 -74 9 -84 11 -11 2 -40 6 -65 9 -50 6 -84 10 -146 20 -22 3 -56 8 -75 11
-19 2 -66 9 -105 15 -38 6 -92 12 -120 15 -27 3 -68 9 -90 14 -22 5 -67 12
-100 15 -33 4 -63 9 -66 11 -3 1 -37 5 -75 8 -66 6 -71 4 -114 -26z"/>
<path d="M10567 5344 c-1 -1 -29 -4 -62 -7 -99 -10 -167 -25 -405 -89 -80 -22
-152 -41 -160 -43 -8 -1 -37 -10 -65 -19 -64 -20 -424 -125 -450 -131 -11 -3
-49 -14 -85 -25 -113 -35 -604 -181 -635 -190 -16 -4 -127 -38 -245 -75 -118
-36 -219 -67 -225 -69 -5 -1 -47 -15 -93 -30 -71 -24 -81 -30 -70 -43 21 -25
127 -97 293 -198 137 -83 341 -218 378 -250 7 -5 57 -46 112 -89 105 -83 339
-312 390 -381 17 -22 32 -42 35 -45 12 -12 90 -121 131 -185 45 -68 151 -275
177 -345 58 -152 107 -335 128 -479 4 -25 8 -55 10 -65 24 -130 23 -542 -1
-726 -36 -276 -67 -441 -136 -715 -45 -176 -48 -189 -55 -225 -2 -14 -7 -38
-11 -55 -7 -34 -5 -76 6 -87 6 -7 347 123 1106 422 143 56 272 109 287 116 15
8 30 14 33 14 3 1 13 3 22 7 31 11 1267 504 1298 518 17 7 203 83 415 168 646
260 864 348 895 362 17 8 125 52 240 98 116 47 347 141 515 210 168 69 395
162 505 207 250 103 773 318 800 330 78 34 128 55 260 110 83 34 178 75 213
91 35 16 65 29 68 29 20 0 394 174 387 181 -4 4 -71 31 -148 60 -77 28 -180
67 -230 86 -49 19 -101 38 -115 43 -14 4 -54 19 -90 33 -36 13 -126 47 -200
75 -74 27 -146 55 -160 61 -27 11 -624 233 -830 308 -69 25 -134 49 -145 54
-11 4 -60 22 -110 40 -49 17 -153 54 -230 81 -219 79 -933 319 -1105 372 -133
41 -505 150 -550 162 -8 2 -58 15 -110 29 -123 33 -103 28 -270 68 -161 39
-233 55 -268 62 -13 2 -31 6 -40 9 -9 3 -33 8 -52 11 -19 3 -66 12 -105 20
-38 8 -86 17 -105 20 -19 3 -42 8 -50 10 -8 2 -40 7 -70 10 -30 4 -57 8 -60
10 -3 1 -30 6 -61 9 -31 4 -66 8 -77 11 -12 2 -52 7 -89 10 -37 4 -70 9 -73
10 -3 2 -46 6 -95 10 -50 4 -97 9 -106 10 -43 8 -455 25 -462 19z"/>
<path d="M33108 5066 c-1 -2 -46 -6 -98 -10 -125 -8 -159 -13 -260 -38 -308
-75 -634 -244 -865 -448 -351 -310 -596 -708 -714 -1160 -11 -41 -22 -91 -25
-110 -3 -19 -7 -44 -10 -55 -7 -35 -18 -118 -22 -165 -5 -66 -5 -319 1 -360 2
-19 7 -55 10 -79 31 -234 124 -489 247 -677 44 -66 156 -186 208 -221 14 -9
27 -20 30 -24 10 -13 137 -87 210 -121 83 -39 236 -94 289 -103 19 -3 37 -8
41 -10 12 -7 186 -34 270 -41 139 -12 393 -6 475 11 11 3 36 7 55 10 19 2 46
7 60 10 14 3 36 8 50 11 208 43 474 156 640 272 346 243 586 563 715 957 48
146 70 243 93 410 11 86 7 435 -7 515 -7 41 -14 86 -17 100 -25 154 -96 367
-174 523 -235 466 -641 761 -1092 793 -46 3 -88 7 -95 9 -6 2 -13 2 -15 1z"/>
<path d="M6888 4065 c-1 -1 -32 -6 -68 -9 -94 -10 -193 -27 -355 -61 -94 -20
-258 -80 -350 -128 -269 -141 -496 -364 -672 -662 -44 -76 -112 -221 -151
-325 -25 -65 -78 -244 -85 -286 -3 -16 -10 -49 -15 -74 -6 -25 -13 -66 -16
-92 -3 -27 -9 -69 -13 -95 -9 -66 -10 -383 -1 -468 42 -401 201 -757 447
-1004 101 -101 136 -132 169 -150 11 -6 27 -17 35 -26 23 -23 254 -147 347
-187 164 -70 349 -126 505 -154 22 -3 48 -8 57 -10 147 -26 644 -25 688 1 3 2
26 6 50 10 25 3 63 11 85 16 22 5 51 12 65 15 70 14 277 91 375 138 507 247
827 672 920 1224 3 17 8 47 11 65 27 152 38 438 22 607 -8 78 -35 248 -43 260
-2 4 -6 20 -9 36 -22 124 -110 340 -203 499 -189 323 -511 593 -873 733 -121
47 -283 87 -470 117 -44 8 -445 16 -452 10z"/>
</g>
</svg>
